<?xml version="1.0" encoding="iso-8859-1"?>
<!-- Generator: Adobe Illustrator 19.0.0, SVG Export Plug-In . SVG Version: 6.00 Build 0)  -->
<svg version="1.1" id="Capa_1" xmlns="http://www.w3.org/2000/svg" xmlns:xlink="http://www.w3.org/1999/xlink" x="0px" y="0px"
	 viewBox="0 0 512 512" style="enable-background:new 0 0 512 512;" xml:space="preserve">
<path style="fill:#10BB67;" d="M512,330v30l-21.301,30h-462.1L0,360v-15c0-16.8,13.001-31.8,31.901-39.6
	c3.3-15.3,14.7-27.599,29.099-32.701V270c0-44.401,32.401-81.901,75.3-88.801C157.599,143.699,197.8,120,241,120
	c5.099,0,10.201,0.3,15,1.199c36.899,4.501,70.201,26.4,88.801,58.801c20.4-0.901,37.798,12.599,43.799,30.899
	c38.701,4.801,73.301,30.901,86.801,67.5C497.901,289.2,512,308.699,512,330z"/>
<path style="fill:#0CA656;" d="M512,330v30l-21.301,30H256V121.199c36.899,4.501,70.201,26.4,88.801,58.801
	c20.4-0.901,37.798,12.599,43.799,30.899c38.701,4.801,73.301,30.901,86.801,67.5C497.901,289.2,512,308.699,512,330z"/>
<path style="fill:#32D736;" d="M391,315c0,8.399-6.599,15-15,15s-15-6.601-15-15c0-8.401-6.599-15-15-15
	c-6.301,0-14.7-3.9-16.8-9.901C325,278.099,313.599,270,301,270s-24,8.099-28.2,20.099c-2.1,6-7.8,9.901-14.099,9.901H226
	c-8.401,0-15,6.599-15,15c0,8.399-6.599,15-15,15s-15-6.601-15-15c0-24.901,20.099-45,45-45h23.101c2.1-3.3,4.199-6.601,6.899-9.3
	c11.1-12.9,27.299-20.7,45-20.7c21.899,0,42.001,11.999,52.2,30.899C375.7,275.099,391,293.399,391,315z"/>
<path style="fill:#787780;" d="M512,421l-30,15l30,15v46c0,8.399-6.599,15-15,15H15c-8.401,0-15-6.601-15-15v-46l31-15L0,421v-61
	h512V421z"/>
<path style="fill:#57555C;" d="M512,421l-30,15l30,15v46c0,8.399-6.599,15-15,15H256V360h256V421z"/>
<path style="fill:#10BB67;" d="M391,315c0,8.399-6.599,15-15,15s-15-6.601-15-15c0-8.401-6.599-15-15-15
	c-6.301,0-14.7-3.9-16.8-9.901C325,278.099,313.599,270,301,270s-24,8.099-28.2,20.099c-2.1,6-7.8,9.901-14.099,9.901H256v-39.3
	c11.1-12.9,27.299-20.7,45-20.7c21.899,0,42.001,11.999,52.2,30.899C375.7,275.099,391,293.399,391,315z"/>
<path style="fill:#B7E0F6;" d="M376,451h-60c-8.291,0-15-6.709-15-15s6.709-15,15-15h60c8.291,0,15,6.709,15,15S384.291,451,376,451
	z"/>
<g>
	<path style="fill:#CAE8F9;" d="M196,451h-30c-8.291,0-15-6.709-15-15s6.709-15,15-15h30c8.291,0,15,6.709,15,15
		S204.291,451,196,451z"/>
	<path style="fill:#CAE8F9;" d="M91,436c0-8.291-6.709-15-15-15H0v30h76C84.291,451,91,444.291,91,436z"/>
</g>
<path style="fill:#B7E0F6;" d="M467,421c-8.291,0-16,6.709-16,15s7.709,15,16,15h45v-30H467z"/>
<path style="fill:#CAE8F9;" d="M512,135c0,8.399-6.599,15-15,15s-15-6.601-15-15c0-8.401-6.599-15-15-15s-16,6.599-16,15
	c0,8.399-6.599,15-15,15s-15-6.601-15-15c0-8.401-6.599-15-15-15s-15,6.599-15,15c0,8.399-6.599,15-15,15s-15-6.601-15-15
	c0-24.901,20.099-45,45-45c11.7,0,21.899,4.499,30,11.7c8.101-7.202,19.3-11.7,31-11.7C491.901,90,512,110.099,512,135z"/>
<path style="fill:#FEDB41;" d="M61,0C28.001,0,1,26.999,1,60c0,32.999,27.001,60,60,60s60-27.001,60-60C121,26.999,93.999,0,61,0z"
	/>
<path style="fill:#FCBF29;" d="M121,60c0,32.999-27.001,60-60,60V0C93.999,0,121,26.999,121,60z"/>
<path style="fill:#B7E0F6;" d="M512,135c0,8.399-6.599,15-15,15s-15-6.601-15-15c0-8.401-6.599-15-15-15s-16,6.599-16,15
	c0,8.399-6.599,15-15,15v-48.3c8.101-7.202,19.3-11.7,31-11.7C491.901,90,512,110.099,512,135z"/>
<path style="fill:#CAE8F9;" d="M331,75c0,8.399-6.599,15-15,15s-15-6.601-15-15c0-8.401-6.599-15-15-15s-15,6.599-15,15
	c0,8.399-6.599,15-15,15s-15-6.601-15-15c0-8.401-6.599-15-15-15s-15,6.599-15,15c0,8.399-6.599,15-15,15s-15-6.601-15-15
	c0-24.901,20.099-45,45-45c11.7,0,21.899,4.499,30,11.7c8.101-7.202,18.3-11.7,30-11.7C310.901,30,331,50.099,331,75z"/>
<path style="fill:#B7E0F6;" d="M331,75c0,8.399-6.599,15-15,15s-15-6.601-15-15c0-8.401-6.599-15-15-15s-15,6.599-15,15
	c0,8.399-6.599,15-15,15V41.7c8.101-7.202,18.3-11.7,30-11.7C310.901,30,331,50.099,331,75z"/>
<g>
</g>
<g>
</g>
<g>
</g>
<g>
</g>
<g>
</g>
<g>
</g>
<g>
</g>
<g>
</g>
<g>
</g>
<g>
</g>
<g>
</g>
<g>
</g>
<g>
</g>
<g>
</g>
<g>
</g>
</svg>
