<?xml version="1.0" encoding="utf-8"?>
<!-- Generator: Adobe Illustrator 16.0.0, SVG Export Plug-In . SVG Version: 6.00 Build 0)  -->
<!DOCTYPE svg PUBLIC "-//W3C//DTD SVG 1.1//EN" "http://www.w3.org/Graphics/SVG/1.1/DTD/svg11.dtd">
<svg version="1.1" id="Capa_1" xmlns="http://www.w3.org/2000/svg" xmlns:xlink="http://www.w3.org/1999/xlink" x="0px" y="0px"
	 width="1000px" height="600px" viewBox="-424.25 118.25 1000 600" enable-background="new -424.25 118.25 1000 600"
	 xml:space="preserve">
<path fill="#FEA832" d="M575.75,644.141v-94.201c0-8.178-5.533-15.32-13.447-17.353c-27.49-7.108-53.199-23.516-70.236-46.226
	l-43.738-58.342c-28.47-37.96-88.44-45.209-125.123-15.075l-2.355,231.196l22.859,37.055h210.748L575.75,644.141z"/>
<g>
	<path fill="#FEA832" d="M-354.933,718.25h342.707l-0.693-69.109h51.621l103.882-182.326c-5.866-7.984-17.107-9.683-25.057-3.8
		C79.619,490.942,4.886,519.02-18.517,506.409c-36.34-26.286-92.008-18.213-118.975,18.313c0,0-60.008,105.777-116.008,137.277"/>
</g>
<path fill="#FEDB41" d="M309.554,644.141l-39.804,37.055H-1.468l-34.782-37.055c54.507-36.578,98.016-108.297,110.566-133.396
	l38.728-77.458c22.95-45.898,68.85-74.588,120.128-75.663l36.578,137.343L309.554,644.141z"/>
<path fill="#FEA832" d="M474.508,644.141l-25.461,37.055H338.24l-28.688-37.055c-13.269-7.172-26.177-15.42-38.728-24.743
	c-0.358-0.358-0.718-0.718-1.077-1.074c-55.94-43.031-89.647-100.407-89.647-153.479c0-39.088,19.006-76.739,53.07-107.22
	c1.077,0,1.794-0.358,2.87-0.358c11.475,0,22.95,1.433,33.707,4.303c4.304,1.077,8.247,2.51,12.55,3.944
	c30.481,10.759,56.659,32.275,73.513,60.961C419.282,553.773,415.339,595.372,474.508,644.141z"/>
<path fill="#FEDB41" d="M346.563,131c-49.486,0-89.648,40.163-89.648,89.648s40.162,89.648,89.648,89.648
	c49.485,0,89.648-40.163,89.648-89.648S396.048,131,346.563,131z"/>
<g>
	<path fill="#FCBF29" d="M436.211,220.648c0,49.486-40.163,89.648-89.648,89.648V131C396.048,131,436.211,171.163,436.211,220.648z"
		/>
	<polygon fill="#FCBF29" points="309.554,644.141 269.75,681.195 269.75,494.967 	"/>
</g>
<path fill="#FE9923" d="M474.508,644.141l-25.461,37.055H338.24l-28.688-37.055c-13.269-7.172-26.177-15.42-38.728-24.743
	c-0.358-0.358-0.718-0.718-1.077-1.074V361.569c4.304,1.077,8.247,2.51,12.55,3.944c30.481,10.759,56.659,32.275,73.513,60.961
	C419.282,553.773,415.339,595.372,474.508,644.141z"/>
<path fill="#FEDB41" d="M-114.5,718.25l78.25-74.109h612v56.18c0,10.042-7.889,17.93-17.93,17.93"/>
<path fill="#FCBF29" d="M269.75,718.25v-74.109h306v74.109"/>
</svg>
