<?xml version="1.0" encoding="utf-8"?>
<!-- Generator: Adobe Illustrator 16.0.0, SVG Export Plug-In . SVG Version: 6.00 Build 0)  -->
<!DOCTYPE svg PUBLIC "-//W3C//DTD SVG 1.1//EN" "http://www.w3.org/Graphics/SVG/1.1/DTD/svg11.dtd">
<svg version="1.1" id="Capa_1" xmlns="http://www.w3.org/2000/svg" xmlns:xlink="http://www.w3.org/1999/xlink" x="0px" y="0px"
	 width="1000px" height="600px" viewBox="-239.75 96 1000 600" enable-background="new -239.75 96 1000 600" xml:space="preserve">
<g>
	<path fill="#CAE8F9" d="M523.665,188.114h-72.912c0,19.805-16.055,35.859-35.859,35.859H307.316
		c-19.805,0-35.859-16.054-35.859-35.859c0-19.803,16.055-35.859,35.859-35.859h71.719c0-19.803,16.053-35.859,35.859-35.859
		h108.771c19.805,0,35.859,16.057,35.859,35.859C559.525,172.06,543.47,188.114,523.665,188.114z"/>
</g>
<path fill="#CAE8F9" d="M73.107,354.654c0,19.723-16.137,35.859-35.859,35.859h-143.437c-19.723,0-35.859-16.137-35.859-35.859
	s16.137-35.859,35.859-35.859h3.229c7.529-20.799,27.25-35.859,50.561-35.859c6.454,0,12.549,1.074,17.93,3.227
	c15.06,5.38,27.253,17.57,32.63,32.633h39.088C56.97,318.795,73.107,334.932,73.107,354.654z"/>
<path fill="#B7E0F6" d="M73.107,354.654c0,19.723-16.137,35.859-35.859,35.859H-34.47V286.162c15.06,5.38,27.253,17.57,32.63,32.633
	h39.088C56.97,318.795,73.107,334.932,73.107,354.654z"/>
<path fill="#57555C" d="M526.634,358.41l-18.657-17.929l-20.17,17.929l19.313,60.67c3.781,9.158,14.322,13.535,23.428,9.666
	c9.14-3.801,13.481-14.287,9.665-23.429L526.634,358.41z"/>
<path fill="#3C3A41" d="M592.416,358.41l-13.579,46.907c-3.816,9.14,0.525,19.628,9.666,23.429c2.241,0.945,4.569,1.383,6.881,1.383
	c7.021,0,13.692-4.15,16.547-11.049l19.313-60.67l-18.677-17.929L592.416,358.41z"/>
<path fill="#FEA832" d="M559.525,107.396c-69.208,0-126.702,56.299-126.702,125.508c0,42.313,23.786,92.515,54.984,125.507h143.437
	c31.197-32.991,53.789-83.193,53.789-125.507C685.032,163.695,628.734,107.396,559.525,107.396z"/>
<path fill="#FE9923" d="M685.032,232.903c0,42.313-22.592,92.515-53.789,125.507h-71.719V107.396
	C628.734,107.396,685.032,163.695,685.032,232.903z"/>
<path fill="#B25C4A" d="M595.384,394.27h-71.719c-10.041,0-17.93,7.888-17.93,17.93v71.719c0,10.039,7.889,17.93,17.93,17.93h71.719
	c10.042,0,17.93-7.891,17.93-17.93v-71.719C613.314,402.157,605.426,394.27,595.384,394.27z"/>
<path fill="#B25C4A" d="M553.445,696c3.078-6.203,2.698-13.887-1.449-19.823l-67.773-94.045c-3.228-4.479-9.803-7.464-15.18-7.464
	c-6.455-0.748-10.758,2.612-14.346,7.09l-21.874,28.364L366.937,696H553.445z"/>
<path fill="#8B4330" d="M613.314,412.199v71.719c0,10.039-7.888,17.93-17.93,17.93h-35.859V394.27h35.859
	C605.426,394.27,613.314,402.157,613.314,412.199z"/>
<path fill="#763220" d="M734.547,696c1.226-5.086,0.411-10.673-2.721-15.292L624.249,521.879c-3.467-5.158-8.72-8.364-15.32-7.892
	c-6.059,0.22-11.591,3.627-14.708,9.04l-86.27,149.644c-4.455,7.727-2.912,17.46,3.222,23.329H734.547z"/>
<path fill="#763220" d="M410.354,696L307.599,544.29c-3.467-5.157-8.72-8.364-15.32-7.891c-6.059,0.219-11.591,3.627-14.708,9.039
	l-86.27,149.644c-0.174,0.304-0.338,0.609-0.494,0.918H410.354z"/>
<path fill="#8B4330" d="M553.445,696c3.078-6.203,2.698-13.887-1.449-19.823l-67.773-94.045c-3.228-4.479-9.803-7.464-15.18-7.464
	c-6.455-0.748-10.758,2.612-14.346,7.091l-21.874,28.363V696H553.445z"/>
</svg>
