<?xml version="1.0" encoding="utf-8"?>
<!-- Generator: Adobe Illustrator 16.0.0, SVG Export Plug-In . SVG Version: 6.00 Build 0)  -->
<!DOCTYPE svg PUBLIC "-//W3C//DTD SVG 1.1//EN" "http://www.w3.org/Graphics/SVG/1.1/DTD/svg11.dtd">
<svg version="1.1" id="Capa_1" xmlns="http://www.w3.org/2000/svg" xmlns:xlink="http://www.w3.org/1999/xlink" x="0px" y="0px"
	 width="1384.169px" height="575.5px" viewBox="114.331 24.5 1384.169 575.5" enable-background="new 114.331 24.5 1384.169 575.5"
	 xml:space="preserve">
<path fill="#CAE8F9" d="M934.197,411.915l-58.848,62.039c-9.237,3.227-20.424,2.149-27.718-3.588l-7.296-5.379l-31.126-22.592
	l-64.194-21.875l26.263-63.47c9.727-22.593,36.961-36.937,69.058-36.937c32.096,0,59.33,14.344,69.057,36.937L934.197,411.915z"/>
<path fill="#B7E0F6" d="M934.197,411.915l-58.848,62.039c-9.237,3.227-20.424,2.149-27.718-3.588l-7.296-5.379V320.116
	c32.096,0,59.33,14.345,69.057,36.938L934.197,411.915z"/>
<path fill="#8B4330" d="M965.81,481.842L937.602,638.31l-97.266-14.104L668.5,601.255l59.007-138.775l17.509-41.957l63.225-15.42
	c8.753-2.15,18.477-0.716,24.798,4.305l7.298,5.379l29.179,21.158l64.682-24.025l15.563,34.427L965.81,481.842z"/>
<polygon fill="#763220" points="965.81,481.842 937.602,638.31 840.337,624.205 840.337,414.784 869.514,435.943 934.197,411.915 
	949.76,446.343 "/>
<path fill="#CAE8F9" d="M1450.352,510.529l-222.253-85.345l-47.333,16.854l-37.938,13.983c-11.669,4.304-26.259,0.716-32.58-8.249
	l-35.988-53.431l-104.071,7.891l142.98-269.663c11.669-20.799,37.445-33.349,67.599-33.349c30.151,0,57.554,12.55,69.221,33.349
	L1450.352,510.529z"/>
<path fill="#B7E0F6" d="M1450.352,510.529l-222.253-85.345l-47.333,16.854V99.224c30.151,0,57.551,12.55,69.221,33.349
	L1450.352,510.529z"/>
<path fill="#B25C4A" d="M1498.5,601.255l-317.734,35.857l-316.113-35.857l105.531-199.021l99.7-49.13
	c5.839-2.866,13.132-3.584,19.939-2.151c6.809,1.078,12.158,4.662,15.563,9.324l37.444,55.582l37.937-13.981l39.557-13.985
	c8.266-2.87,18.477-2.15,25.774,2.151l204.255,120.485L1498.5,601.255z"/>
<path fill="#8B4330" d="M1498.5,601.255h-317.734V401.877l39.556-13.985c8.269-2.87,18.478-2.15,25.774,2.151l204.256,120.485
	L1498.5,601.255z"/>
<path fill="#CAE8F9" d="M332.822,136.278h-3.292c-7.408-20.842-27.11-35.859-50.496-35.859c-23.388,0-43.09,15.017-50.497,35.859
	h-39.15c-19.806,0-37.055,16.054-37.055,35.859c0,19.804,17.249,35.859,37.055,35.859h143.438c19.807,0,35.859-16.058,35.859-35.859
	C368.681,152.333,352.626,136.278,332.822,136.278z"/>
<path fill="#CAE8F9" d="M651.623,243.855h-39.15c-7.408-20.843-27.11-35.859-50.497-35.859s-43.089,15.017-50.498,35.859h-3.29
	c-19.807,0-35.859,16.054-35.859,35.859c0,19.802,16.055,35.859,35.859,35.859h143.438c19.805,0,35.858-16.057,35.858-35.859
	C687.484,259.91,671.428,243.855,651.623,243.855z"/>
</svg>
