<?xml version="1.0" encoding="utf-8"?>
<!-- Generator: Adobe Illustrator 16.0.0, SVG Export Plug-In . SVG Version: 6.00 Build 0)  -->
<!DOCTYPE svg PUBLIC "-//W3C//DTD SVG 1.1//EN" "http://www.w3.org/Graphics/SVG/1.1/DTD/svg11.dtd">
<svg version="1.1" xmlns="http://www.w3.org/2000/svg" xmlns:xlink="http://www.w3.org/1999/xlink" x="0px" y="0px"
	 width="1013.568px" height="630.75px" viewBox="-408.5 101.5 1013.568 630.75"
	 enable-background="new -408.5 101.5 1013.568 630.75" xml:space="preserve">
<g id="Capa_1">
	<g>
		<rect x="191.487" y="181.981" fill="#1BD9DE" width="143.436" height="143.437"/>
	</g>
	<g>
		<path fill="#1DE8F1" d="M334.928,191.649c0,10.04-7.888,17.93-17.93,17.93s-17.93-7.89-17.93-17.93
			c0-10.042,7.888-17.93,17.93-17.93S334.928,181.608,334.928,191.649z"/>
		<path fill="#1DE8F1" d="M-126.293,285.831c-3.341,13.155,20.073,23.089,20.073,32.991s-8.028,17.93-17.93,17.93
			c-9.902,0-17.433-8.04-17.93-17.93C-143.102,298.463-123.855,276.233-126.293,285.831z"/>
	</g>
	<path fill="#1DE8F1" d="M587.136,307.489v76.381c0,6.094-3.229,12.189-8.606,15.418c-5.381,3.227-12.193,3.227-17.571,0.359
		c-22.95-11.834-47.694-7.891-68.493,10.758c-30.479,27.611-69.685,34.064-103.751,19.004
		c-10.042-4.305-20.082-10.758-29.047-19.006c-15.833-13.236-68.243-10.768-83.553,0c-19.363,17.572-41.954,26.895-65.622,26.895
		h-1.436c-9.683,0-17.57-7.889-17.57-17.93V253.7c0,19.723,16.137,35.859,35.858,35.859h341.857
		C579.246,289.56,587.136,297.448,587.136,307.489z"/>
	<path fill="#15B7BE" d="M334.926,181.983c0,18.646-15.42,35.859-35.859,35.859h-71.719c-19.723,0-35.859,16.137-35.859,35.859
		c0,0.716,0,1.793,0.358,2.51c-6.454,1.433-12.552,2.151-17.571,2.151c-22.949,0-73.577-7.373-163.319-34.529
		c-38.405-11.622-67.707-13.198-104.066-2.518c-46.813,14.089-53.536,21.628-61.427,25.931c-5.375,2.866-12.188,2.509-17.568-0.72
		c-5.378-3.229-8.606-8.965-8.606-15.419v-67.057c0-10.042,7.888-17.93,17.93-17.93h390.128c0,0,68.134,0,71.719,0
		C318.788,146.124,334.926,162.261,334.926,181.983z"/>
	<path fill="#1BD9DE" d="M587.733,307.489v76.381c0,6.094-3.229,12.189-8.606,15.418c-5.381,3.227-12.193,3.227-17.571,0.359
		c-22.95-11.834-47.694-7.891-68.493,10.758c-30.479,27.611-69.685,34.066-103.751,19.004v-139.85h180.49
		C579.843,289.559,587.733,297.447,587.733,307.489z"/>
	<path fill="#10BB67" d="M605.069,723.608v35.859l-25.462,35.859H27.253l-34.185-35.859v-17.93c0-20.081,15.54-38.011,38.132-47.334
		c3.944-18.289,17.57-32.99,34.782-39.088v-3.227c0-53.073,38.729-97.897,90.007-106.145
		c25.459-44.824,73.512-73.152,125.149-73.152c6.095,0,12.193,0.358,17.93,1.434c44.105,5.38,83.912,31.556,106.145,70.285
		c24.385-1.077,45.181,15.06,52.354,36.934c46.26,5.739,87.617,36.937,103.754,80.684
		C588.215,674.84,605.069,698.147,605.069,723.608z"/>
	<path fill="#0CA656" d="M605.069,723.608v35.859l-25.462,35.859H299.069V474.026c44.105,5.38,83.912,31.556,106.145,70.285
		c24.385-1.077,45.181,15.06,52.354,36.934c46.26,5.739,87.617,36.937,103.754,80.684
		C588.215,674.84,605.069,698.147,605.069,723.608z"/>
	<path fill="#32D736" d="M460.436,705.679c0,10.039-7.889,17.93-17.93,17.93c-10.042,0-17.93-7.891-17.93-17.93
		c0-10.042-7.889-17.93-17.93-17.93c-7.532,0-17.571-4.662-20.082-11.835c-5.02-14.344-18.647-24.024-33.707-24.024
		c-15.061,0-28.688,9.681-33.708,24.024c-2.511,7.172-9.323,11.835-16.853,11.835h-39.088c-10.042,0-17.93,7.888-17.93,17.93
		c0,10.039-7.888,17.93-17.93,17.93s-17.93-7.891-17.93-17.93c0-29.765,24.024-53.789,53.789-53.789h27.612
		c2.511-3.944,5.02-7.891,8.247-11.116c13.268-15.42,32.631-24.743,53.789-24.743c26.176,0,50.204,14.343,62.395,36.934
		C442.147,657.984,460.436,679.858,460.436,705.679z"/>
	<path fill="#787780" d="M-6.931,759.468h612"/>
	<path fill="#57555C" d="M299.069,759.468h306"/>
	<path fill="#10BB67" d="M460.436,705.679c0,10.039-7.889,17.93-17.93,17.93c-10.042,0-17.93-7.891-17.93-17.93
		c0-10.042-7.889-17.93-17.93-17.93c-7.532,0-17.571-4.662-20.082-11.835c-5.02-14.344-18.647-24.024-33.707-24.024
		c-15.061,0-28.688,9.681-33.708,24.024c-2.511,7.172-9.323,11.835-16.853,11.835h-3.229v-46.976
		c13.268-15.42,32.631-24.743,53.789-24.743c26.176,0,50.204,14.343,62.395,36.934C442.147,657.984,460.436,679.858,460.436,705.679
		z"/>
	<path fill="#1DE8F1" d="M-43.101,543.329c-3.341,13.155,20.073,23.089,20.073,32.991s-8.028,17.93-17.93,17.93
		c-9.902,0-17.433-8.04-17.93-17.93C-59.91,555.962-40.663,533.731-43.101,543.329z"/>
	<path fill="#1BD9DE" d="M81.496,285.819c-4.609,12.766,17.724,24.938,16.757,34.792c-0.966,9.855-9.74,17.061-19.594,16.095
		c-9.855-0.967-16.565-9.703-16.094-19.594C63.534,296.751,84.859,276.505,81.496,285.819z"/>
	<path fill="#15B7BE" d="M440.363,211.882c-3.342,13.155,20.073,23.089,20.073,32.991s-8.028,17.93-17.93,17.93
		c-9.902,0-17.433-8.04-17.93-17.93C423.554,224.515,442.8,202.284,440.363,211.882z"/>
	<path fill="#15B7BE" d="M522.296,448.284c-3.341,13.155,20.073,23.089,20.073,32.991s-8.028,17.93-17.93,17.93
		c-9.902,0-17.433-8.04-17.93-17.93C505.487,460.917,524.735,438.687,522.296,448.284z"/>
</g>
<g id="Layer_2">
</g>
</svg>
